<?xml version="1.0" encoding="UTF-8" standalone="no"?>
<svg width="91px" height="39px" viewBox="0 0 91 39" version="1.1" xmlns="http://www.w3.org/2000/svg" xmlns:xlink="http://www.w3.org/1999/xlink" xmlns:sketch="http://www.bohemiancoding.com/sketch/ns">
    <!-- Generator: Sketch 3.3.3 (12081) - http://www.bohemiancoding.com/sketch -->
    <title>logo</title>
    <desc>Created with Sketch.</desc>
    <defs></defs>
    <g id="Page-1" stroke="none" stroke-width="1" fill="none" fill-rule="evenodd" sketch:type="MSPage">
        <g id="Desktop-HD" sketch:type="MSArtboardGroup" transform="translate(-172.000000, -19.000000)" fill="#FFFFFF">
            <g id="logo" sketch:type="MSLayerGroup" transform="translate(172.000000, 19.000000)">
                <path d="M55.5023605,19.9999868 C56.8827984,20.0033231 58.003605,18.8826093 57.9999913,17.5016653 C58.003605,16.1173849 56.8827984,14.9966711 55.5023605,15.0000074 C54.118031,15.0000074 52.9975024,16.1209992 53.0000042,17.5027774 C53.0011161,18.8826093 54.1208108,20.0044352 55.5023605,19.9999868" id="Fill-1" sketch:type="MSShapeGroup"></path>
                <path d="M69.0971937,7.60532995 C69.8613986,8.33527919 70.4935416,9.1428934 71,10 C68.4791338,4.13959391 62.4412247,0.00076142132 55.4079361,0 C54.0774863,0.00076142132 53,1.03020305 53,2.3 C53.0007972,3.56903553 54.0774863,4.59898477 55.4079361,4.59974619 C56.1694838,4.6 56.9137598,4.67106599 57.6365126,4.80101523 C61.5720612,3.70761421 65.9941394,4.64137056 69.0971937,7.60532995" id="Fill-2" sketch:type="MSShapeGroup"></path>
                <path d="M68.0619662,17.5447678 C68.0611485,18.2233987 68.3378157,18.8377467 68.7848446,19.2825727 C69.2318735,19.7273987 69.8500818,20.0018889 70.5309831,19.9999902 C71.8946938,19.9999902 73,18.9001309 73,17.5431404 C73,15.2381824 72.538797,13.0392774 71.7085226,11.0286098 C71.1889878,10.112648 70.5405234,9.24957715 69.7565873,8.46950429 C66.5734145,5.30201788 62.0371615,4.30414303 58,5.47262492 C63.7195166,6.54400455 68.0619662,11.547483 68.0619662,17.5447678" id="Fill-3" sketch:type="MSShapeGroup"></path>
                <path d="M63,13 C61.5004065,10.0246358 58.5718553,7.9994703 55.2128447,8.0000001 C53.9906256,8.000265 53.0000029,9.06649015 53.0000029,10.3819868 C52.9990184,11.0397351 53.2471048,11.6352318 53.647784,12.0664901 C53.8040685,12.234702 53.9837343,12.3766888 54.1806282,12.4887417 C56.8256522,10.4010597 60.5275044,10.5719206 63,13" id="Fill-4" sketch:type="MSShapeGroup"></path>
                <path d="M59.5208645,17.3136495 C59.5216114,18.7979366 60.5240016,20 61.7604322,20 C62.9978588,19.9991041 64,18.7970406 64,17.3136495 C64,15.4671009 63.6093517,13.7277674 62.9219201,12.2082398 C60.4206752,9.47082028 56.6757793,9.27819148 54,11.6318466 C54.3117219,11.8295524 54.6662683,11.9427405 55.0427248,11.9421432 C57.5118514,11.9430392 59.5216114,14.3519444 59.5208645,17.3136495" id="Fill-5" sketch:type="MSShapeGroup"></path>
                <path d="M10.3234332,38 L5.72800938,38 L0,22 L4.6264795,22 L7.89974345,33.3267945 L8.12010344,34.2553813 L8.34046342,33.3267945 L10.669366,27.261107 C10.9213217,27.7151772 11.1573446,28.2619202 11.3777045,28.9010705 C11.5980645,29.5410173 11.7654949,30.2271679 11.8813459,30.9592565 C11.9963868,31.6918762 12.0277125,32.4345863 11.975593,33.1876525 C11.9229335,33.9407186 11.7600939,34.6473156 11.4876145,35.3074434 L10.3234332,38" id="Fill-6" sketch:type="MSShapeGroup"></path>
                <path d="M15.6964861,38 L10,22 L14.6070278,22 L17.8444203,33.3267945 L18.0623654,34.2553813 L18.2803105,33.3267945 L21.4864536,22 L26,22 L20.3344963,38 L15.6964861,38" id="Fill-7" sketch:type="MSShapeGroup"></path>
                <path d="M29,22 L34,22 L34,38 L29,38 L29,22 Z" id="Fill-8" sketch:type="MSShapeGroup"></path>
                <path d="M39.4804032,24.8518993 L37,24.8518993 L37,22.3670468 L39.4804032,21.7379394 L39.4804032,20.8572971 C39.4804032,19.829836 39.6345149,18.8911679 39.9437639,18.0418325 C40.2522437,17.1924971 40.6907312,16.4691991 41.2587135,15.8713987 C41.8264394,15.2738682 42.513916,14.8129006 43.3206304,14.4874165 C44.1276012,14.1627421 45.0289366,14 46.0254058,14 C46.5231276,14 47.1162396,14.0682815 47.8037162,14.2045746 C48.4911928,14.3411376 49.2230309,14.5872748 50,14.9435261 L49.0737913,17.7430673 C48.495552,17.5754672 48.0024459,17.4496998 47.5942166,17.3657648 C47.1859873,17.2820997 46.8123755,17.2397274 46.4736375,17.2397274 C45.4974259,17.2397274 44.7448172,17.5700695 44.2173501,18.2307537 C43.6891138,18.8911679 43.425252,19.7669523 43.425252,20.8572971 L43.425252,38 L39.4804032,38 L39.4804032,24.8518993" id="Fill-9" sketch:type="MSShapeGroup"></path>
                <path d="M51,22 L51,25 L46,25 C46.1155932,24.6770671 46.2657451,24.3333333 46.4513496,23.9695788 C46.6363582,23.6058242 46.8681404,23.2831513 47.1458023,23 C47.4234642,22.7173687 47.7532622,22.4799792 48.1354943,22.2878315 C48.5174284,22.0959438 48.9628195,22 49.4722636,22 L51,22" id="Fill-10" sketch:type="MSShapeGroup"></path>
                <path d="M53,22 L58,22 L58,38 L53,38 L53,22 Z" id="Fill-11" sketch:type="MSShapeGroup"></path>
                <path d="M72.8781361,28.6683732 C72.9412656,28.1886071 72.920041,27.7292565 72.8144624,27.2908588 C72.7086116,26.8527297 72.5339171,26.4667141 72.2914672,26.1325433 C72.0479289,25.7989097 71.7412611,25.5327013 71.3717359,25.3341866 C71.0013943,25.1359406 70.5733655,25.0368176 70.0871052,25.0368176 C69.643294,25.0368176 69.2041087,25.1305681 68.7711819,25.3186063 C68.3374388,25.5063759 67.9409747,25.803745 67.5817897,26.2107134 C67.2220604,26.6179505 66.9317192,27.1396223 66.7096775,27.7762661 C66.4876359,28.4131785 66.3766151,29.1801059 66.3766151,30.0773169 C66.3766151,31.893229 66.7891336,33.2970688 67.6133544,34.2880303 C68.4378473,35.2797977 69.5162187,35.7751442 70.8484686,35.7751442 C71.5883353,35.7751442 72.3121476,35.6867662 73.0207216,35.5092044 C73.7287515,35.3319112 74.5480743,35.0348108 75.478418,34.6168286 L76.5886262,37.5284665 C75.4468532,38.0713597 74.3733798,38.4520028 73.3695665,38.6712017 C72.365209,38.8904006 71.3660216,39 70.3725484,39 C68.9140396,39 67.6609736,38.7386268 66.6144391,38.2172237 C65.5681767,37.6958205 64.7006904,37.0226436 64.0141572,36.1979616 C63.3265356,35.3735482 62.8193228,34.4398041 62.4917025,33.3959232 C62.1638101,32.3525796 62,31.2982223 62,30.2336573 C62,28.9399542 62.2165995,27.7816386 62.6503426,26.7587106 C63.0835415,25.7363198 63.6756525,24.8753733 64.4261316,24.1758711 C65.1766106,23.4766374 66.0596071,22.9391167 67.0745769,22.5633088 C68.0892746,22.1877696 69.1673738,22 70.3091468,22 C71.4716002,22 72.5396314,22.2299439 73.5124242,22.6887572 C74.4844006,23.1481078 75.2669886,23.7844829 75.8590997,24.5984198 C76.4509386,25.4123568 76.8155658,26.3882753 76.9529813,27.525638 C77.0903968,28.663538 76.9265867,29.9002923 76.461823,31.2356325 L67.5817897,31.2356325 C67.8141715,30.5052382 68.147234,29.8949198 68.580705,29.40414 C69.0139039,28.9138974 69.5053343,28.6683732 70.0555404,28.6683732 L72.8781361,28.6683732" id="Fill-12" sketch:type="MSShapeGroup"></path>
                <path d="M84.2024263,22.3227235 C84.3634031,22.4732909 84.5394147,22.7691669 84.7309796,23.209798 C84.9222853,23.6507058 85.0583768,24.1508442 85.1389947,24.7096596 L85.1993934,25.4838085 L85.5016461,24.7096596 C85.9042175,23.8497094 86.43303,23.1829505 87.0875651,22.7096596 C87.741841,22.2369222 88.3914509,22 89.0363947,22 C89.6204215,22 90.2749566,22.1292555 91,22.3872128 L90.5168105,26.0323831 C90.1134614,25.9031276 89.776473,25.8176031 89.5045493,25.7741489 C89.2326257,25.731525 88.9757368,25.7096596 88.7341421,25.7096596 C88.2102548,25.7096596 87.7470254,25.8497094 87.3444539,26.1289787 C86.941364,26.4088015 86.598932,26.790202 86.3171579,27.2742873 C86.0348653,27.7580958 85.8189336,28.3387766 85.667548,29.0160531 C85.5164217,29.6936064 85.4412474,30.4303903 85.4412474,31.2258511 L85.4412474,39 L81.4834487,39 L81.4834487,26.3872128 C81.4834487,25.78522 81.4479353,25.1450318 81.3776862,24.4677553 C81.3066594,23.790202 81.181196,23.0755605 81,22.3227235 L84.2024263,22.3227235" id="Fill-13" sketch:type="MSShapeGroup"></path>
            </g>
        </g>
    </g>
</svg>